/* 
  Ode to Joy - Beethoven's Symphony No. 9 
  Connect a piezo buzzer or speaker to pin 11 or select a new pin.
  More songs available at https://github.com/robsoncouto/arduino-songs                                            
                                              
                                              Robson Couto, 2019
*/
#include "pitches.h"

// change this to make the song slower or faster
int tempo=114; 

// change this to whichever pin you want to use
const int buzzerPin = 11;
const int buttonPin = 2;

int buttonState = 0;
static int led = 3;

static int le = 6;

static int leh = 7;

// notes of the moledy followed by the duration.
// a 4 means a quarter note, 8 an eighteenth , 16 sixteenth, so on
// !!negative numbers are used to represent dotted notes,
// so -4 means a dotted quarter note, that is, a quarter plus an eighteenth!!
int melody[] = {

  
  NOTE_E4,4,  NOTE_E4,4,  NOTE_F4,4,  NOTE_G4,4,//1
  NOTE_G4,4,  NOTE_F4,4,  NOTE_E4,4,  NOTE_D4,4,
  NOTE_C4,4,  NOTE_C4,4,  NOTE_D4,4,  NOTE_E4,4,
  NOTE_E4,-4, NOTE_D4,8,  NOTE_D4,2,

  NOTE_E4,4,  NOTE_E4,4,  NOTE_F4,4,  NOTE_G4,4,//4
  NOTE_G4,4,  NOTE_F4,4,  NOTE_E4,4,  NOTE_D4,4,
  NOTE_C4,4,  NOTE_C4,4,  NOTE_D4,4,  NOTE_E4,4,
  NOTE_D4,-4,  NOTE_C4,8,  NOTE_C4,2,

  NOTE_D4,4,  NOTE_D4,4,  NOTE_E4,4,  NOTE_C4,4,//8
  NOTE_D4,4,  NOTE_E4,8,  NOTE_F4,8,  NOTE_E4,4, NOTE_C4,4,
  NOTE_D4,4,  NOTE_E4,8,  NOTE_F4,8,  NOTE_E4,4, NOTE_D4,4,
  NOTE_C4,4,  NOTE_D4,4,  NOTE_G3,2,

  NOTE_E4,4,  NOTE_E4,4,  NOTE_F4,4,  NOTE_G4,4,//12
  NOTE_G4,4,  NOTE_F4,4,  NOTE_E4,4,  NOTE_D4,4,
  NOTE_C4,4,  NOTE_C4,4,  NOTE_D4,4,  NOTE_E4,4,
  NOTE_D4,-4,  NOTE_C4,8,  NOTE_C4,2
  
};

// sizeof gives the number of bytes, each int value is composed of two bytes (16 bits)
// there are two values per note (pitch and duration), so for each note there are four bytes
int notes=sizeof(melody)/sizeof(melody[0])/2; 

// this calculates the duration of a whole note in ms (60s/tempo)*4 beats
int wholenote = (60000 * 4) / tempo;

int divider = 0, noteDuration = 0;

void setup() {
  pinMode(buttonPin, INPUT);
 pinMode(led, OUTPUT);
  pinMode(le, OUTPUT);
  pinMode(leh, OUTPUT);

   
}

void loop() {
 buttonState = digitalRead(buttonPin);
  if (buttonState == HIGH){
    playSong();
   digitalWrite(led, HIGH);   // turn the LED on (HIGH is the voltage level)
  delay(500);                       // wait for a second
  digitalWrite(led, LOW);    // turn the LED off by making the voltage LOW
  delay(250);                       // wait for a second
digitalWrite(leh, HIGH);   // turn the LED on (HIGH is the voltage level)
  delay(250);                       // wait for a second
  digitalWrite(leh, LOW);    // turn the LED off by making the voltage LOW
  delay(500);                       // wait for a second
  digitalWrite(le, HIGH);   // turn the LED on (HIGH is the voltage level)
  delay(250);                       // wait for a second
  digitalWrite(le, LOW);    // turn the LED off by making the voltage LOW
  delay(500);       
  }else{ 
   
  }
  
  // if you want to repeat the song forever, 
  // just paste the setup code here instead.
  
}

void playSong() {
 

  // iterate over the notes of the melody. 
  // Remember, the array is twice the number of notes (notes + durations)
  for (int thisNote = 0; thisNote < notes * 2; thisNote = thisNote + 2) {

    // calculates the duration of each note
    divider = melody[thisNote + 1];
    if (divider > 0) {
      // regular note, just proceed
      noteDuration = (wholenote) / divider;
    } else if (divider < 0) {
      // dotted notes are represented with negative durations!!
      noteDuration = (wholenote) / abs(divider);
      noteDuration *= 1.5; // increases the duration in half for dotted notes
    }

    // we only play the note for 90% of the duration, leaving 10% as a pause
    tone(buzzerPin, melody[thisNote], noteDuration*0.9);

    // Wait for the specief duration before playing the next note.
    delay(noteDuration);
    
    // stop the waveform generation before the next note.
    noTone(buzzerPin);
  }
  
}
